<?xml version="1.0" standalone="no"?>
<!DOCTYPE svg PUBLIC "-//W3C//DTD SVG 20010904//EN"
 "http://www.w3.org/TR/2001/REC-SVG-20010904/DTD/svg10.dtd">
<svg version="1.0" xmlns="http://www.w3.org/2000/svg"
 width="400.000000pt" height="400.000000pt" viewBox="0 0 400.000000 400.000000"
 preserveAspectRatio="xMidYMid meet">
<metadata>
Created by potrace 1.11, written by Peter Selinger 2001-2013
</metadata>
<g transform="translate(0.000000,400.000000) scale(0.100000,-0.100000)"
fill="#000000" stroke="none">
<path d="M0 3281 c0 -566 3 -720 13 -724 10 -4 10 -6 0 -6 -10 -1 -13 -263
-13 -1276 l0 -1275 733 1 c402 1 724 3 715 6 -10 2 -18 11 -18 19 0 11 -14 13
-74 8 -53 -5 -75 -3 -81 6 -5 9 -2 10 14 5 21 -6 131 22 131 34 -1 15 -21 35
-47 47 -24 11 -25 12 -7 13 12 1 38 -10 58 -24 20 -14 40 -25 45 -25 4 0 18
-11 31 -25 13 -14 18 -25 12 -25 -7 0 -12 6 -12 13 -1 7 -6 4 -15 -6 -21 -29
-8 -47 36 -47 28 0 39 4 39 15 0 8 5 15 10 15 6 0 10 -7 10 -15 0 -13 40 -15
300 -15 281 0 299 1 293 17 -3 10 -11 24 -16 31 -5 7 -7 15 -4 18 6 6 57 -46
57 -58 0 -5 9 -8 20 -8 11 0 20 5 20 12 0 9 3 9 12 0 8 -8 63 -12 180 -12 139
0 170 3 174 15 9 23 93 66 118 59 15 -3 39 6 74 31 29 20 57 33 62 30 5 -3 11
-1 15 5 3 5 14 10 23 10 23 0 -39 -37 -69 -42 -14 -2 -29 -14 -37 -30 -10 -21
-20 -28 -43 -28 -28 0 -119 -35 -119 -45 0 -3 15 -5 34 -5 24 0 36 5 39 18 4
16 5 16 6 0 1 -17 39 -18 641 -18 l640 0 0 445 0 445 -25 -12 c-13 -6 -22 -15
-19 -19 3 -5 -2 -9 -10 -9 -9 0 -16 -6 -16 -12 0 -7 -6 -2 -13 12 -7 14 -25
31 -39 38 -17 8 -25 18 -21 27 7 20 23 19 23 0 0 -27 46 -37 85 -18 l35 17 0
152 c0 92 -4 154 -10 156 -5 2 -11 22 -12 46 -1 24 -5 45 -10 48 -14 9 -9 24
6 18 8 -3 17 -20 19 -37 2 -18 5 -4 5 30 1 41 -2 63 -10 66 -10 4 -10 6 0 6 9
1 12 35 11 139 -1 75 -4 123 -8 106 l-6 -31 -37 23 c-21 14 -38 32 -38 42 0
10 -5 23 -12 30 -9 9 -6 12 15 12 15 0 27 5 27 10 0 6 5 10 11 10 5 0 7 -5 3
-12 -5 -7 -3 -8 6 -3 8 5 18 1 27 -10 11 -16 13 94 13 699 0 465 -3 715 -10
711 -5 -3 -27 -1 -49 6 -31 9 -50 9 -85 -1 -62 -17 -88 -43 -83 -83 3 -30 6
-32 43 -31 21 1 57 5 79 9 65 13 33 -5 -46 -26 -64 -17 -74 -17 -82 -4 -14 26
-83 18 -149 -17 -65 -34 -77 -50 -58 -73 6 -8 9 -18 6 -23 -3 -5 0 -26 6 -48
6 -21 12 -44 12 -50 2 -19 164 -194 181 -194 11 0 71 -60 142 -143 20 -22 43
-38 58 -39 30 -3 33 -14 5 -21 -15 -4 -33 9 -71 48 -27 29 -56 60 -63 70 -7
10 -18 15 -24 11 -6 -3 -13 3 -17 14 -3 11 -19 29 -35 40 -31 22 -124 112
-177 173 -18 20 -33 47 -33 59 0 13 -8 45 -17 71 -12 35 -23 49 -40 52 -13 3
-34 7 -48 10 -19 4 -23 2 -19 -10 5 -11 2 -13 -10 -9 -9 3 -16 1 -16 -5 0 -21
-18 -11 -24 14 -6 23 -10 25 -41 19 -22 -4 -41 -2 -50 6 -18 15 -10 31 10 24
8 -3 22 1 30 10 15 15 15 17 1 32 -22 22 -21 37 2 25 14 -7 25 -6 40 5 22 15
30 44 12 44 -5 0 -7 -8 -4 -17 5 -15 2 -14 -13 2 -10 12 -26 24 -35 28 -14 5
-18 1 -18 -19 0 -14 -4 -23 -10 -19 -6 3 -6 15 0 29 5 13 6 27 3 30 -4 3 0 6
7 6 12 0 12 3 0 15 -16 16 -140 30 -140 16 0 -5 -10 -12 -22 -15 l-23 -7 23
-9 c23 -10 31 -22 10 -16 -7 3 -26 7 -42 11 -27 6 -27 7 -10 20 13 10 15 14 5
15 -9 0 -10 4 -4 13 6 6 13 24 17 40 3 15 11 27 16 27 6 0 10 9 10 19 0 11 5
23 10 26 5 3 10 24 10 47 0 47 -44 115 -112 170 -81 66 -116 73 -206 43 -23
-8 -50 -15 -60 -15 -29 1 39 26 105 39 60 11 64 11 115 -16 72 -38 75 -39 59
-19 -8 9 -12 19 -9 22 3 3 15 -10 26 -28 17 -27 85 -119 120 -163 5 -6 9 -26
10 -44 1 -38 26 -81 47 -81 9 0 18 -13 22 -30 3 -16 11 -31 17 -31 6 -1 17 -2
25 -3 8 0 16 -7 18 -14 3 -8 -1 -10 -13 -5 -12 4 -15 3 -10 -5 4 -7 12 -12 17
-12 5 0 23 -10 38 -21 16 -12 33 -19 39 -15 10 6 34 -39 25 -48 -3 -3 -13 0
-21 6 -11 10 -13 8 -10 -12 2 -21 8 -24 32 -22 20 3 39 -5 68 -28 l40 -32 65
33 c46 23 76 32 104 31 37 -3 38 -2 30 20 -10 26 4 72 19 63 5 -3 24 2 42 11
18 10 51 20 73 24 l40 6 -42 27 c-55 35 -79 34 -102 -3 -10 -16 -21 -27 -25
-23 -4 4 -12 1 -17 -7 -9 -12 -10 -12 -5 3 3 10 6 23 6 28 0 5 4 9 10 9 5 0
20 11 34 25 14 14 33 24 43 22 20 -3 67 -31 98 -58 11 -10 32 -22 48 -28 l27
-11 0 430 0 430 -1244 0 -1244 0 -7 -91 c-5 -64 -10 -88 -18 -80 -13 13 -14
60 -3 124 l8 47 -267 0 c-181 0 -273 -4 -288 -11 -16 -9 -22 -9 -25 0 -5 14
-142 15 -142 1 0 -5 -5 -10 -11 -10 -5 0 -7 5 -4 10 4 7 -123 10 -374 10
l-381 0 0 -719z m774 612 c-19 -6 -2 -73 23 -93 l26 -20 -7 -147 c-7 -141 -6
-152 18 -228 14 -44 30 -120 35 -170 6 -49 17 -115 26 -145 8 -30 13 -59 11
-65 -2 -5 -20 8 -40 29 -29 31 -36 44 -30 60 16 44 4 199 -23 286 -29 95 -29
94 -18 247 7 102 6 113 -12 140 -11 15 -23 40 -27 56 -3 15 -13 27 -21 27 -8
0 -15 5 -15 10 0 6 6 10 14 10 7 0 20 7 27 16 10 12 14 13 18 3 2 -7 0 -14 -5
-16z m723 -165 c-2 -13 -4 -3 -4 22 0 25 2 35 4 23 2 -13 2 -33 0 -45z m-46
-134 c-25 -32 -26 -28 -4 17 9 18 18 28 21 21 2 -6 -6 -24 -17 -38z m1529 21
c11 -13 10 -14 -4 -9 -9 3 -16 10 -16 15 0 13 6 11 20 -6z m51 -42 c13 -16 12
-17 -3 -4 -10 7 -18 15 -18 17 0 8 8 3 21 -13z m-1146 -3 c-4 -6 -21 -16 -38
-24 -58 -25 -112 -86 -142 -161 -46 -116 -57 -136 -92 -174 -68 -73 -15 -111
58 -41 23 22 45 36 48 32 3 -5 13 -11 21 -14 12 -5 11 -7 -5 -14 -11 -4 -31
-19 -45 -32 -14 -14 -20 -22 -13 -19 6 4 35 -2 63 -13 48 -19 53 -19 83 -4 42
22 95 22 144 0 l41 -18 29 26 c30 29 150 92 159 84 2 -3 -10 -11 -28 -18 -80
-32 -173 -111 -165 -140 3 -11 1 -20 -4 -20 -5 0 -9 5 -9 10 0 18 -76 11 -103
-10 -35 -28 -123 -43 -178 -31 -24 6 -47 7 -51 3 -4 -4 -3 -23 1 -42 9 -44 60
-74 147 -85 32 -4 54 -10 47 -12 -10 -4 -122 9 -163 18 -9 3 -14 -3 -14 -13 1
-10 -2 -15 -7 -12 -5 3 -9 11 -9 19 0 10 -47 35 -67 35 -2 0 -18 -30 -35 -67
-17 -38 -37 -76 -46 -85 -10 -12 -11 -18 -3 -18 19 0 3 -19 -17 -19 -35 -1
-78 -9 -106 -20 -16 -7 -31 -10 -33 -7 -3 2 19 13 47 23 71 25 95 49 144 147
l30 59 -21 16 c-21 18 -108 17 -97 0 3 -6 -8 -31 -25 -58 -17 -26 -31 -53 -31
-59 0 -7 -4 -12 -10 -12 -5 0 -10 -6 -10 -13 0 -8 -12 -24 -26 -38 -26 -23
-26 -23 -13 -1 8 12 17 22 21 22 5 0 8 6 8 13 0 7 11 29 25 49 33 48 32 60 -2
44 -109 -52 -142 -66 -175 -72 -25 -4 -38 -2 -38 5 0 6 3 10 8 10 29 -5 65 5
96 26 20 14 45 25 55 25 64 0 133 78 89 101 -16 9 -24 8 -36 -5 -14 -13 -17
-13 -26 0 -10 13 -18 13 -66 1 -40 -10 -79 -12 -143 -7 -48 4 -89 9 -91 11 -2
2 52 4 120 5 113 0 126 2 147 22 13 12 27 19 30 15 4 -3 7 -3 7 0 0 4 -12 13
-27 21 -25 14 -26 15 -7 16 27 0 38 24 19 40 -12 10 -12 14 -1 26 8 7 16 19
19 26 3 10 10 8 26 -6 11 -11 24 -16 28 -13 4 4 -2 14 -13 22 -19 14 -19 14 1
14 11 1 27 1 35 2 8 0 26 -2 40 -6 22 -6 22 -4 -5 11 -27 16 -28 18 -10 24 13
5 21 3 23 -6 2 -8 12 -14 22 -14 10 0 22 -5 26 -11 5 -8 11 -5 18 8 12 22 64
91 84 111 6 7 12 21 12 30 0 10 13 44 30 77 16 33 30 65 30 71 0 13 67 70 118
100 41 25 56 29 47 14z m700 -100 c-3 -5 -12 -10 -18 -10 -7 0 -6 4 3 10 19
12 23 12 15 0z m-1168 -52 c-3 -8 -6 -5 -6 6 -1 11 2 17 5 13 3 -3 4 -12 1
-19z m1858 -18 c-3 -5 -12 -10 -18 -10 -7 0 -6 4 3 10 19 12 23 12 15 0z
m-1829 -53 c20 8 29 -25 12 -45 -21 -24 -29 -64 -16 -80 6 -7 7 -12 2 -11 -23
4 -35 -3 -46 -28 -8 -21 -12 -24 -15 -12 -2 9 5 33 16 53 15 26 21 57 22 104
1 37 4 55 6 40 3 -18 9 -25 19 -21z m2180 -34 c-7 -7 -26 7 -26 19 0 6 6 6 15
-2 9 -7 13 -15 11 -17z m-2316 -29 c0 -2 -7 -4 -15 -4 -8 0 -15 4 -15 10 0 5
7 7 15 4 8 -4 15 -8 15 -10z m2291 -1 c-12 -22 -60 -73 -68 -73 -3 0 2 10 13
23 58 69 74 84 55 50z m-1621 3 c0 -2 -8 -10 -17 -17 -16 -13 -17 -12 -4 4 13
16 21 21 21 13z m-620 -32 c0 -2 -9 0 -20 6 -11 6 -20 13 -20 16 0 2 9 0 20
-6 11 -6 20 -13 20 -16z m523 -15 c-24 -11 -43 -24 -43 -29 0 -6 -7 -10 -15
-10 -22 0 21 40 54 50 46 14 47 9 4 -11z m272 -29 c-3 -5 -13 -10 -21 -10 -8
0 -12 5 -9 10 3 6 13 10 21 10 8 0 12 -4 9 -10z m866 -40 c15 0 31 -4 34 -10
3 -6 -4 -10 -18 -10 -31 0 -125 28 -132 39 -3 5 16 3 42 -5 25 -8 59 -14 74
-14z m-1772 -70 c16 0 21 -4 17 -15 -3 -10 3 -17 19 -21 14 -3 25 -10 25 -15
0 -14 -23 -11 -46 6 -12 8 -43 24 -70 35 l-49 20 40 -5 c22 -3 51 -5 64 -5z
m2414 3 c-7 -2 -19 -2 -25 0 -7 3 -2 5 12 5 14 0 19 -2 13 -5z m-406 -70 c30
-27 10 -21 -27 8 -22 18 -40 37 -40 42 0 9 12 0 67 -50z m-1927 37 c0 -5 -7
-7 -15 -4 -8 4 -15 8 -15 10 0 2 7 4 15 4 8 0 15 -4 15 -10z m2203 -7 c-7 -2
-19 -2 -25 0 -7 3 -2 5 12 5 14 0 19 -2 13 -5z m-1039 -40 c-7 -16 -14 -35
-14 -43 0 -9 -8 -32 -18 -52 -29 -56 -45 -125 -39 -163 6 -35 -8 -51 -15 -17
-3 15 -6 14 -16 -6 -15 -26 -6 -50 11 -33 6 6 18 11 26 11 12 0 12 -3 3 -12
-18 -18 -15 -87 3 -94 8 -4 21 -1 28 4 10 8 13 6 13 -9 0 -10 -4 -19 -9 -19
-23 0 -66 -44 -90 -94 -30 -61 -34 -94 -13 -102 19 -7 56 13 56 31 0 8 4 15 9
15 5 0 7 -9 4 -20 -4 -16 0 -20 18 -21 16 -1 11 -4 -15 -10 -59 -14 -65 -23
-55 -71 13 -55 26 -78 47 -78 15 -1 15 -3 -3 -16 -14 -11 -16 -18 -7 -21 6 -3
12 -10 12 -17 0 -8 8 -24 19 -37 10 -13 29 -53 41 -89 13 -36 30 -74 39 -84
15 -18 15 -19 -2 -13 -10 4 -23 7 -28 7 -5 0 -9 9 -9 19 0 30 -42 134 -60 151
-10 8 -32 43 -50 78 -54 103 -87 116 -186 72 -22 -10 -65 -26 -94 -36 -30 -10
-48 -20 -40 -22 8 -3 33 -23 56 -46 32 -32 39 -45 33 -61 -7 -19 -8 -19 -8 -1
-1 24 -67 86 -91 86 -10 0 -20 -6 -23 -12 -7 -19 21 -117 42 -147 27 -38 84
-151 79 -156 -2 -3 -21 26 -41 63 -21 37 -48 86 -62 109 -22 39 -32 72 -34
116 -1 16 -3 16 -25 2 -13 -9 -27 -27 -30 -40 -4 -17 -23 -33 -56 -50 -58 -29
-76 -55 -60 -86 7 -11 9 -23 6 -26 -3 -3 1 -21 9 -40 8 -20 15 -43 15 -53 0
-32 31 -79 91 -137 120 -115 166 -213 141 -298 -7 -24 -9 -17 -8 37 1 59 -2
71 -31 112 -18 26 -33 50 -33 55 0 4 -24 31 -54 59 -79 74 -126 136 -126 163
0 28 -42 139 -53 139 -4 0 -12 -11 -16 -24 -7 -17 -3 -41 16 -92 19 -54 26
-96 30 -190 l6 -122 56 -113 c46 -94 60 -113 76 -111 12 2 16 0 9 -5 -6 -4
-11 -28 -10 -52 1 -36 -3 -46 -24 -59 l-25 -16 23 25 c25 29 27 46 7 73 -14
19 -41 19 -140 -1 -16 -3 -27 -2 -23 2 4 5 29 12 55 17 72 12 77 14 81 27 2 6
-6 30 -19 54 -76 141 -77 146 -83 274 -3 72 -12 135 -20 155 -8 18 -18 46 -21
62 l-6 29 -22 -20 c-36 -33 -54 -39 -24 -8 26 27 36 55 19 55 -5 0 -43 -18
-86 -40 -42 -22 -91 -40 -109 -41 -49 -2 -84 -13 -69 -23 7 -4 19 -5 27 -2 20
7 41 -32 26 -47 -13 -13 -15 -67 -2 -67 5 0 11 -12 13 -27 2 -18 15 -35 37
-50 19 -13 29 -23 24 -23 -6 0 -22 9 -37 21 l-26 21 -9 -24 c-9 -21 -10 -19
-10 14 -1 20 -6 40 -12 44 -16 10 -68 -57 -69 -89 0 -16 -4 -26 -10 -22 -5 3
-7 12 -3 20 7 19 -5 18 -37 0 -14 -8 -41 -14 -61 -15 -66 0 -96 -18 -143 -85
-48 -66 -135 -150 -145 -139 -3 4 3 11 13 18 30 17 104 99 136 149 15 25 32
47 37 50 5 3 40 11 78 17 37 6 81 18 97 26 26 13 28 19 23 52 -5 34 -2 32 12
-8 3 -11 10 -8 29 15 13 17 24 38 24 47 0 40 -45 108 -71 108 -16 0 -49 -30
-49 -45 0 -7 -10 -20 -22 -31 l-21 -19 15 25 c9 14 19 35 22 46 7 24 -4 26
-256 53 -74 8 -115 19 -170 44 -40 19 -81 37 -91 40 -9 4 -17 11 -17 16 0 6
15 3 33 -6 17 -9 45 -23 60 -31 15 -7 42 -18 60 -23 43 -13 209 -39 217 -34 4
2 43 -2 88 -10 45 -8 91 -11 103 -7 18 7 14 14 -45 67 -36 32 -66 63 -66 69 0
7 -15 34 -34 62 -32 50 -60 113 -52 121 2 2 8 -10 14 -26 6 -17 16 -31 22 -31
6 0 9 -4 6 -9 -9 -15 56 -103 127 -173 67 -65 71 -68 119 -68 56 0 156 31 201
63 32 22 77 68 77 77 -1 24 -53 53 -80 45 -11 -4 -20 -2 -20 3 0 5 36 9 80 8
77 -1 81 1 102 28 13 16 36 45 52 63 l29 34 -39 32 c-21 18 -43 32 -48 32 -5
0 -29 -28 -53 -63 -24 -35 -43 -56 -43 -48 0 20 19 55 41 76 9 8 21 25 28 38
11 21 10 22 -26 23 -22 1 -29 3 -18 6 11 3 25 9 31 14 6 5 18 7 26 4 22 -9 71
60 75 107 8 75 -50 131 -182 177 -61 22 -94 45 -81 58 4 4 10 3 14 -3 9 -13
94 -54 112 -54 21 0 93 -45 137 -87 58 -55 112 -85 140 -79 12 4 58 37 100 74
43 37 102 85 131 107 76 57 115 116 131 197 7 38 10 79 7 93 -7 27 11 36 20
10 11 -27 21 -16 43 45 12 33 26 60 31 60 5 0 2 -12 -6 -27z m1493 21 c-3 -3
-12 -4 -19 -1 -8 3 -5 6 6 6 11 1 17 -2 13 -5z m-427 -8 c0 -3 -4 -8 -10 -11
-5 -3 -10 -1 -10 4 0 6 5 11 10 11 6 0 10 -2 10 -4z m-3329 -172 c-11 -33 -20
-53 -21 -46 0 24 33 128 37 116 2 -7 -5 -38 -16 -70z m549 -13 c0 -18 -32
-126 -40 -136 -5 -6 -25 -51 -43 -101 -27 -68 -36 -111 -41 -185 -12 -165 17
-227 101 -213 35 5 42 3 61 -21 12 -15 27 -25 34 -22 7 2 31 -8 54 -24 23 -15
58 -29 80 -31 l39 -3 -39 -6 c-31 -4 -44 0 -73 23 -38 30 -62 34 -94 17 -16
-8 -19 -17 -14 -38 7 -32 -18 -105 -47 -137 -10 -11 -18 -30 -18 -41 0 -12 -7
-23 -15 -26 -11 -5 -12 -1 -6 16 5 12 7 31 5 41 -1 11 8 27 21 38 13 10 29 34
35 53 10 30 9 39 -10 65 -14 20 -30 30 -46 30 -16 0 -23 4 -18 11 3 6 -6 23
-20 38 -42 44 -59 127 -46 225 19 139 29 177 75 274 52 110 56 150 20 198 -37
49 -30 52 10 4 19 -23 35 -45 35 -49z m563 64 c-3 -9 -8 -14 -10 -11 -3 3 -2
9 2 15 9 16 15 13 8 -4z m1962 5 c8 -13 -15 -13 -35 0 -12 8 -11 10 7 10 12 0
25 -4 28 -10z m35 -30 c-37 -29 -50 -24 -16 6 15 14 31 22 35 19 3 -4 -5 -15
-19 -25z m-1656 -101 c10 -52 6 -66 -9 -30 -17 38 -19 61 -6 61 5 0 11 -14 15
-31z m-1477 -26 c-4 -25 -3 -33 3 -23 5 8 12 11 16 7 4 -3 -20 -33 -52 -65
-72 -72 -95 -99 -114 -135 -13 -27 -15 -27 -22 -8 -13 37 10 75 67 110 53 32
95 91 95 134 0 9 3 17 6 17 4 0 4 -17 1 -37z m913 17 c-20 -13 -43 -13 -35 0
3 6 16 10 28 10 18 0 19 -2 7 -10z m210 -75 c0 -8 -4 -15 -9 -15 -13 0 -22 16
-14 24 11 11 23 6 23 -9z m270 -10 c16 -9 19 -14 9 -15 -8 0 -24 7 -35 15 -24
18 -7 19 26 0z m1727 -32 c-3 -10 -5 -4 -5 12 0 17 2 24 5 18 2 -7 2 -21 0
-30z m-1162 -15 c-22 -24 -40 -43 -40 -44 0 -1 -10 -5 -22 -8 -14 -5 -23 -3
-23 3 0 6 11 13 24 17 13 3 39 21 57 40 47 49 51 42 4 -8z m575 22 c8 -5 11
-10 5 -10 -5 0 -17 5 -25 10 -8 5 -10 10 -5 10 6 0 17 -5 25 -10z m-153 -6
c-3 -3 -12 -4 -19 -1 -8 3 -5 6 6 6 11 1 17 -2 13 -5z m-1157 -8 c0 -3 -4 -8
-10 -11 -5 -3 -10 -1 -10 4 0 6 5 11 10 11 6 0 10 -2 10 -4z m1344 -21 c-7
-16 -24 -21 -24 -6 0 8 7 13 27 20 1 1 0 -6 -3 -14z m-1383 -38 c-10 -9 -11
-8 -5 6 3 10 9 15 12 12 3 -3 0 -11 -7 -18z m-36 -52 c-16 -13 -31 -22 -33
-20 -2 2 9 15 24 29 16 13 31 22 33 20 2 -2 -9 -15 -24 -29z m1345 10 c-22
-24 -50 -34 -50 -17 0 5 48 34 69 41 3 0 -6 -10 -19 -24z m-165 -5 c3 -5 -1
-10 -10 -10 -9 0 -13 5 -10 10 3 6 8 10 10 10 2 0 7 -4 10 -10z m-40 -20 c3
-5 1 -10 -4 -10 -6 0 -11 5 -11 10 0 6 2 10 4 10 3 0 8 -4 11 -10z m-2185 -30
c-12 -7 -12 -12 -2 -22 19 -19 14 -33 -5 -16 -10 9 -24 13 -31 11 -8 -3 -10 1
-6 12 4 9 16 20 28 25 25 9 36 3 16 -10z m890 16 c0 -2 -7 -7 -16 -10 -8 -3
-12 -2 -9 4 6 10 25 14 25 6z m1415 -26 c-16 -11 -41 -27 -55 -36 -14 -9 -7 0
15 20 22 20 47 36 55 36 8 0 2 -9 -15 -20z m229 4 c3 -8 2 -12 -4 -9 -6 3 -10
10 -10 16 0 14 7 11 14 -7z m986 -16 c0 -13 9 -38 21 -57 11 -18 18 -35 16
-37 -4 -5 -43 64 -52 94 -4 13 -2 22 4 22 6 0 11 -10 11 -22z m-3460 -53 c17
-2 38 -9 48 -15 14 -9 11 -10 -13 -4 -16 3 -39 7 -50 9 -11 1 -23 3 -27 4 -5
0 -8 6 -8 12 0 5 5 7 10 4 6 -4 24 -8 40 -10z m231 -43 c-7 -2 -18 1 -23 6 -8
8 -4 9 13 5 13 -4 18 -8 10 -11z m2699 -3 c0 -14 -17 -10 -23 5 -4 10 -1 13 9
9 7 -3 14 -9 14 -14z m-362 -92 c0 -21 5 -44 11 -50 17 -17 13 -24 -11 -22
-18 2 -23 8 -21 29 2 26 -12 37 -19 15 -6 -19 -43 6 -45 31 -2 18 2 21 18 17
19 -5 20 -4 5 12 -22 24 -20 34 7 46 18 9 25 6 39 -14 9 -13 16 -42 16 -64z
m-2873 34 c3 -5 1 -12 -5 -16 -5 -3 -10 1 -10 9 0 18 6 21 15 7z m1672 3 c-3
-3 -12 -4 -19 -1 -8 3 -5 6 6 6 11 1 17 -2 13 -5z m760 0 c-3 -3 -12 -4 -19
-1 -8 3 -5 6 6 6 11 1 17 -2 13 -5z m40 0 c-3 -3 -12 -4 -19 -1 -8 3 -5 6 6 6
11 1 17 -2 13 -5z m-87 -8 c0 -2 -8 -10 -17 -17 -16 -13 -17 -12 -4 4 13 16
21 21 21 13z m1469 -49 c15 -3 38 -15 52 -27 l24 -22 -36 21 c-30 17 -41 19
-70 10 -88 -29 -120 -49 -136 -87 -25 -56 -22 -148 6 -202 15 -27 19 -46 13
-48 -7 -2 -8 -11 -2 -25 5 -12 13 -50 19 -84 5 -33 19 -82 30 -107 12 -24 21
-51 21 -58 0 -7 7 -22 15 -32 8 -11 15 -29 14 -40 0 -15 -5 -9 -16 17 -8 20
-19 37 -24 37 -5 0 -9 5 -9 12 0 10 -17 56 -55 153 -5 11 -7 24 -6 28 4 18
-23 87 -29 76 -9 -14 -50 50 -50 78 0 21 -33 57 -43 47 -3 -3 -14 -1 -24 6
-15 9 -15 10 7 4 22 -6 23 -5 11 10 -7 9 -21 16 -30 16 -9 0 -28 6 -42 14 -14
7 -43 16 -64 20 -24 5 -34 11 -26 15 26 16 -16 30 -92 30 -78 0 -97 4 -97 22
0 6 7 6 18 1 9 -5 49 -9 87 -8 62 1 77 -3 129 -32 32 -18 70 -35 85 -39 14 -3
41 -15 60 -25 18 -11 35 -17 37 -15 2 2 8 24 12 49 16 84 41 120 106 151 37
19 61 37 64 50 5 17 7 18 10 6 1 -9 15 -19 31 -22z m-3739 9 c0 -3 -4 -8 -10
-11 -5 -3 -10 -1 -10 4 0 6 5 11 10 11 6 0 10 -2 10 -4z m2565 -16 c3 -5 2
-10 -4 -10 -5 0 -13 5 -16 10 -3 6 -2 10 4 10 5 0 13 -4 16 -10z m299 -15 c9
-14 14 -31 10 -37 -4 -6 -12 3 -20 22 -21 49 -17 56 10 15z m-2756 8 c-10 -2
-28 -2 -40 0 -13 2 -5 4 17 4 22 1 32 -1 23 -4z m204 -36 c37 -17 60 -22 64
-15 8 12 24 -9 24 -32 -1 -13 -2 -13 -13 1 -7 9 -17 14 -24 12 -6 -2 -31 6
-55 18 -24 13 -70 29 -103 36 l-60 13 55 -4 c30 -2 81 -15 112 -29z m1735 27
c-3 -3 -12 -4 -19 -1 -8 3 -5 6 6 6 11 1 17 -2 13 -5z m588 -4 c13 -5 14 -9 5
-9 -8 0 -24 4 -35 9 -13 5 -14 9 -5 9 8 0 24 -4 35 -9z m-240 -14 c11 -2 -10
-4 -47 -5 -38 0 -68 2 -68 7 0 7 67 6 115 -2z m290 -5 c-3 -6 -11 -8 -17 -5
-6 4 -5 9 3 15 16 10 23 4 14 -10z m360 8 c-3 -4 5 -15 17 -23 12 -9 18 -19
14 -23 -4 -5 -16 2 -26 15 -10 12 -23 22 -29 22 -5 0 -12 4 -15 9 -3 5 5 9 19
9 14 0 22 -4 20 -9z m180 -10 c15 -14 -7 -10 -35 7 l-25 15 25 -7 c14 -3 29
-10 35 -15z m-252 -3 c9 5 9 4 1 -5 -12 -13 -84 -5 -84 9 0 5 16 4 35 -1 19
-6 41 -7 48 -3z m731 -20 c-3 -15 -8 -25 -11 -23 -2 3 -1 17 3 31 3 15 8 25
11 23 2 -3 1 -17 -3 -31z m-1674 14 c0 -5 -2 -10 -4 -10 -3 0 -8 5 -11 10 -3
6 -1 10 4 10 6 0 11 -4 11 -10z m90 0 c0 -5 -4 -10 -10 -10 -5 0 -10 5 -10 10
0 6 5 10 10 10 6 0 10 -4 10 -10z m-2157 -98 c10 -11 14 -23 9 -26 -5 -3 -19
6 -30 19 -12 14 -31 25 -42 25 -28 0 -26 35 3 55 21 15 22 15 32 -19 6 -19 18
-43 28 -54z m1164 82 c-3 -3 -12 -4 -19 -1 -8 3 -5 6 6 6 11 1 17 -2 13 -5z
m1543 2 c0 -2 -7 -9 -15 -16 -13 -11 -14 -10 -9 4 5 14 24 23 24 12z m146 -48
c29 -59 18 -55 -15 5 -22 39 -24 47 -16 47 2 0 16 -24 31 -52z m-709 20 c-3
-8 -6 -5 -6 6 -1 11 2 17 5 13 3 -3 4 -12 1 -19z m-1627 -13 c23 -9 28 -14 15
-14 -11 0 -31 6 -45 14 -31 18 -16 18 30 0z m2090 -59 c12 -20 12 -20 -5 -6
-10 8 -30 26 -44 39 l-26 24 31 -18 c17 -9 37 -27 44 -39z m341 37 c13 -16 12
-17 -3 -4 -17 13 -22 21 -14 21 2 0 10 -8 17 -17z m786 -5 c-3 -8 -6 -5 -6 6
-1 11 2 17 5 13 3 -3 4 -12 1 -19z m-992 -26 c-3 -17 -13 -33 -22 -36 -14 -6
-14 -4 1 18 9 14 16 33 16 42 0 10 3 15 6 11 3 -3 3 -19 -1 -35z m-1772 11
c-7 -2 -19 -2 -25 0 -7 3 -2 5 12 5 14 0 19 -2 13 -5z m1130 -18 c-3 -9 -8
-14 -10 -11 -3 3 -2 9 2 15 9 16 15 13 8 -4z m-2083 -115 c-3 -3 -14 -22 -25
-44 -10 -21 -21 -34 -23 -28 -1 5 6 25 17 43 12 19 22 54 22 79 l2 45 6 -45
c3 -25 4 -47 1 -50z m3739 6 c2 -60 -9 -36 -14 30 -3 41 -1 51 5 34 4 -14 8
-43 9 -64z m-1689 44 c0 -5 -4 -10 -10 -10 -5 0 -10 5 -10 10 0 6 5 10 10 10
6 0 10 -4 10 -10z m637 -22 c-3 -8 -6 -5 -6 6 -1 11 2 17 5 13 3 -3 4 -12 1
-19z m-2507 -73 c13 -14 19 -25 14 -25 -6 0 -20 11 -32 25 -12 14 -18 25 -14
25 5 0 19 -11 32 -25z m348 -96 c-12 -24 -42 -75 -66 -113 -25 -39 -53 -90
-63 -114 -21 -49 -35 -51 -25 -5 9 39 164 288 174 278 2 -1 -7 -22 -20 -46z
m42 20 c-11 -38 -20 -49 -20 -25 0 17 17 56 25 56 2 0 0 -14 -5 -31z m900 17
c0 -2 -7 -7 -16 -10 -8 -3 -12 -2 -9 4 6 10 25 14 25 6z m538 -21 c-3 -3 -9 2
-12 12 -6 14 -5 15 5 6 7 -7 10 -15 7 -18z m21 -74 c1 -35 -5 -22 -12 24 -5
28 -4 34 3 20 5 -11 9 -31 9 -44z m1741 15 c0 -15 -7 -26 -20 -29 -11 -3 -20
-1 -20 4 0 5 4 9 9 9 5 0 13 9 16 20 9 27 15 25 15 -4z m-3210 -87 c-7 -39
-14 -68 -17 -66 -2 3 2 42 9 88 7 45 14 75 16 65 2 -9 -2 -49 -8 -87z m-211
31 c0 -10 -3 -8 -9 5 -12 27 -12 43 0 25 5 -8 9 -22 9 -30z m3055 -11 c-3 -28
-9 -71 -14 -95 -13 -56 -4 -91 23 -100 49 -14 95 -57 126 -115 17 -32 31 -62
31 -65 0 -13 -37 42 -49 73 -26 63 -119 103 -174 74 -51 -27 -75 -139 -41
-191 17 -25 26 -34 78 -73 55 -41 96 -79 96 -89 0 -9 -36 20 -147 117 -36 32
-44 36 -39 19 4 -12 -2 -52 -13 -90 -21 -77 -50 -147 -51 -124 0 8 6 27 14 42
26 49 39 157 28 233 -8 60 -7 75 8 105 10 19 18 48 18 65 0 21 9 37 32 56 26
22 35 40 46 96 19 94 24 113 28 113 2 0 2 -23 0 -51z m-3046 -56 c8 -14 10
-32 6 -41 -5 -13 -8 -10 -15 14 -5 17 -25 49 -44 70 -19 21 -35 40 -35 42 0
10 76 -64 88 -85z m1686 37 c4 -25 3 -31 -4 -20 -5 8 -10 26 -10 39 0 32 6 24
14 -19z m-1258 -2 c-18 -18 -50 -50 -70 -71 -20 -21 -36 -34 -36 -29 0 11 122
132 132 132 4 0 -7 -15 -26 -32z m2941 26 c-3 -3 -12 -4 -19 -1 -8 3 -5 6 6 6
11 1 17 -2 13 -5z m-3567 -79 c0 -5 -5 -3 -10 5 -5 8 -10 20 -10 25 0 6 5 3
10 -5 5 -8 10 -19 10 -25z m1356 -47 c3 -11 3 -22 0 -25 -3 -4 -6 0 -6 7 0 8
-12 27 -27 43 l-28 30 27 -18 c15 -9 30 -26 34 -37z m-156 12 c0 -5 -5 -10
-11 -10 -5 0 -7 5 -4 10 3 6 8 10 11 10 2 0 4 -4 4 -10z m-690 -14 c0 -2 -7
-7 -16 -10 -8 -3 -12 -2 -9 4 6 10 25 14 25 6z m7 -48 c-3 -7 -5 -2 -5 12 0
14 2 19 5 13 2 -7 2 -19 0 -25z m1463 11 c0 -6 -4 -7 -10 -4 -5 3 -10 11 -10
16 0 6 5 7 10 4 6 -3 10 -11 10 -16z m-1780 -9 c0 -11 8 -23 18 -27 21 -8 46
-33 55 -55 3 -10 11 -18 17 -18 15 0 12 26 -5 40 -8 7 -15 19 -15 26 0 25 17
15 30 -17 19 -44 37 -59 75 -59 21 0 51 -12 83 -35 l51 -34 -1 75 c-1 106 8
102 14 -6 4 -67 10 -96 23 -110 10 -11 19 -33 21 -50 2 -17 8 -39 14 -50 5
-10 10 -29 10 -42 0 -22 0 -22 -14 -3 -7 11 -13 27 -13 35 0 8 -12 41 -27 72
-21 43 -40 66 -79 92 -63 43 -117 57 -117 31 0 -16 -2 -17 -17 -3 -42 35 -91
27 -112 -18 -6 -14 -18 -27 -26 -30 -8 -4 -15 -13 -15 -21 0 -19 -66 -122 -93
-144 -12 -10 -29 -18 -37 -18 -10 0 -8 3 5 9 39 16 105 110 105 149 0 11 -12
33 -27 49 -16 15 -27 26 -26 24 6 -13 -132 -83 -174 -89 -31 -4 -55 -14 -70
-31 -26 -28 -28 -25 -11 13 13 29 72 49 114 39 19 -5 25 -4 20 4 -5 8 -1 10
10 5 11 -4 15 -3 10 5 -4 6 12 22 39 38 25 14 44 31 42 37 -2 6 -27 19 -56 29
-56 19 -81 34 -81 50 0 5 12 1 28 -10 31 -23 108 -47 136 -44 27 3 76 61 76
89 0 13 5 23 10 23 6 0 10 -9 10 -20z m1184 -27 c9 -18 14 -33 12 -33 -6 0
-36 55 -36 66 0 11 5 3 24 -33z m-978 -12 c-1 -11 6 -15 24 -14 41 4 1 -13
-47 -21 -24 -3 -44 -2 -48 4 -3 5 -1 10 5 10 6 0 8 5 5 10 -10 16 1 25 33 26
21 1 29 -3 28 -15z m1604 -2 c0 -6 -4 -7 -10 -4 -5 3 -10 11 -10 16 0 6 5 7
10 4 6 -3 10 -11 10 -16z m-832 -24 c-3 -3 -9 2 -12 12 -6 14 -5 15 5 6 7 -7
10 -15 7 -18z m62 -70 c-1 -5 -12 4 -25 20 -14 17 -25 35 -25 40 1 6 12 -3 25
-20 14 -16 25 -34 25 -40z m1240 21 c0 -2 -8 -10 -17 -17 -16 -13 -17 -12 -4
4 13 16 21 21 21 13z m-1622 -40 c-13 -19 -24 -33 -26 -31 -5 4 37 65 44 65 2
0 -6 -15 -18 -34z m2673 7 c13 -15 12 -15 -8 -4 -24 12 -29 21 -14 21 5 0 15
-7 22 -17z m109 7 c0 -5 -4 -10 -10 -10 -5 0 -10 5 -10 10 0 6 5 10 10 10 6 0
10 -4 10 -10z m-1480 -21 c16 -30 8 -31 -13 -3 -10 13 -13 24 -8 24 6 0 15 -9
21 -21z m-385 1 c3 -5 1 -10 -4 -10 -6 0 -11 5 -11 10 0 6 2 10 4 10 3 0 8 -4
11 -10z m609 -25 c-21 -19 -43 -35 -49 -35 -5 -1 -26 -3 -45 -4 -19 -2 -39 -5
-45 -6 -5 -1 -17 -1 -25 0 -21 3 38 17 80 19 23 1 47 11 70 31 19 16 39 30 44
30 5 0 -8 -16 -30 -35z m-1882 -176 c56 -54 104 -99 105 -99 1 0 0 8 -3 18 -5
16 -5 16 9 -1 14 -17 17 -15 40 27 23 41 24 47 11 72 -13 24 -13 25 2 13 13
-10 17 -10 24 0 4 8 12 11 17 8 5 -4 19 11 31 31 21 37 62 82 62 68 0 -4 -16
-28 -35 -53 -19 -25 -35 -54 -35 -64 0 -11 -4 -19 -10 -19 -5 0 -10 -9 -10
-20 0 -11 -6 -20 -14 -20 -8 0 -18 -5 -22 -11 -4 -8 1 -9 17 -4 20 7 19 4 -9
-20 -28 -24 -33 -33 -28 -57 3 -15 9 -43 12 -60 7 -37 41 -77 127 -149 71 -60
100 -62 195 -17 37 17 78 31 92 29 14 -1 38 3 54 8 15 6 25 7 22 3 -3 -5 -24
-14 -48 -21 -24 -7 -63 -21 -88 -31 -123 -48 -170 -49 -215 -5 -13 14 -26 25
-29 25 -3 0 -30 25 -61 55 -60 60 -93 69 -128 38 -10 -10 -40 -29 -65 -43 -38
-21 -47 -31 -45 -50 1 -14 -1 -19 -4 -12 -4 10 -12 8 -31 -10 -21 -20 -24 -20
-18 -4 3 10 1 25 -6 34 -11 13 -10 14 8 8 14 -4 26 -1 34 9 7 8 37 29 66 46
65 37 95 79 57 79 -17 1 -17 1 0 14 9 7 17 26 17 42 0 24 -16 45 -80 107 -44
42 -85 77 -90 77 -11 0 -80 122 -80 141 0 8 11 -8 24 -35 16 -31 60 -83 128
-147z m787 151 c0 -10 -3 -8 -9 5 -12 27 -12 43 0 25 5 -8 9 -22 9 -30z m546
-8 c66 -35 38 -36 -47 -1 -26 10 -62 20 -80 20 l-33 2 35 6 c51 9 59 8 125
-27z m1781 -9 c-10 -10 -19 5 -10 18 6 11 8 11 12 0 2 -7 1 -15 -2 -18z
m-2433 -7 c9 -7 17 -16 17 -20 0 -11 -28 -6 -33 7 -4 9 -8 8 -16 -3 -5 -8 -13
-11 -17 -7 -7 7 13 37 25 37 3 0 14 -7 24 -14z m892 -33 c8 9 29 19 47 22 18
4 40 12 50 18 21 13 35 3 21 -15 -6 -7 -13 -22 -16 -33 -4 -18 -5 -18 -6 3 -1
26 -18 28 -66 8 -36 -15 -44 -33 -23 -54 15 -15 64 -16 73 -2 13 21 25 9 25
-25 0 -55 25 -85 70 -85 23 0 67 -15 116 -39 43 -21 88 -41 100 -45 11 -3 45
-30 75 -59 30 -29 77 -63 104 -75 110 -51 174 -87 160 -90 -8 -2 -40 8 -71 22
-69 32 -125 29 -198 -9 -27 -14 -60 -25 -73 -25 -13 0 -23 -6 -23 -14 0 -18
-31 -30 -40 -16 -5 8 -10 7 -18 -3 -12 -14 -10 -17 61 -70 20 -15 37 -33 37
-39 0 -7 -12 0 -27 14 -16 14 -41 34 -58 44 -42 26 -51 36 -60 64 -7 24 -7 24
9 5 15 -19 17 -17 20 18 1 17 27 26 52 16 28 -10 94 5 157 38 l52 26 -25 16
c-14 9 -47 40 -74 69 -27 28 -55 52 -62 52 -7 0 -47 18 -89 41 -47 25 -86 39
-103 38 -15 -2 -33 0 -40 4 -23 15 -12 -12 19 -48 17 -19 37 -35 45 -35 8 0
14 -4 14 -10 0 -18 63 -42 132 -51 38 -5 77 -13 86 -19 15 -10 14 -10 -3 -6
-11 3 -56 10 -99 16 -45 6 -94 19 -113 30 -62 36 -97 15 -58 -36 8 -10 15 -23
15 -28 0 -16 -28 15 -40 43 -6 16 -20 31 -31 34 -29 8 -69 -32 -72 -70 -1 -17
-5 -29 -9 -27 -3 2 -17 0 -31 -5 -19 -8 -29 -5 -46 10 -11 11 -21 24 -21 29 0
13 42 40 63 40 20 0 77 30 77 40 0 4 -31 26 -70 51 -38 24 -70 48 -70 52 0 10
8 5 82 -46 l57 -40 20 24 c26 31 26 36 -1 50 -13 6 -39 26 -58 44 -47 44 -71
47 -102 11 l-25 -30 -23 22 c-13 12 -20 25 -17 29 4 3 13 -2 21 -12 7 -10 18
-15 24 -11 15 9 16 36 2 36 -13 0 -13 12 2 47 6 15 10 34 9 41 -1 6 3 12 9 12
5 0 10 10 10 23 1 18 3 16 15 -11 13 -30 16 -32 30 -19z m1463 -25 c24 -10 51
-14 59 -11 12 5 15 2 10 -10 -4 -11 -1 -17 8 -17 8 0 15 -4 15 -10 0 -13 -7
-13 -38 5 -15 8 -52 25 -83 39 -30 14 -66 38 -80 52 l-24 27 45 -29 c25 -17
64 -37 88 -46z m-2173 41 c28 5 59 13 70 16 16 6 17 5 5 -4 -8 -6 -39 -15 -67
-21 -51 -11 -64 -22 -43 -35 6 -3 10 -11 10 -17 0 -6 -9 1 -21 16 -12 15 -31
27 -47 27 -24 2 -24 2 -4 6 12 2 22 12 22 21 0 14 1 14 13 -1 10 -15 19 -16
62 -8z m-165 -117 c0 -2 -8 2 -17 9 -38 28 -63 53 -63 61 0 5 18 -8 40 -28 22
-21 40 -39 40 -42z m2450 57 c0 -11 -4 -18 -10 -14 -5 3 -7 12 -3 20 7 21 13
19 13 -6z m-3840 -59 l-11 -25 6 25 c2 14 5 34 6 45 2 19 2 19 6 0 2 -12 -1
-32 -7 -45z m1555 9 c9 -17 15 -34 13 -39 -2 -5 -11 9 -20 30 -20 47 -15 53 7
9z m495 21 c0 -5 -5 -10 -11 -10 -5 0 -7 5 -4 10 3 6 8 10 11 10 2 0 4 -4 4
-10z m1806 -25 c10 -26 -1 -35 -13 -10 -6 14 -7 25 -2 25 5 0 12 -7 15 -15z
m-2791 -15 c-28 -12 -37 -12 -30 0 3 6 16 10 28 9 21 0 21 -1 2 -9z m375 -23
c66 -44 144 -80 148 -68 4 13 52 14 85 2 17 -7 43 -5 80 3 31 7 60 10 64 5 4
-4 37 -17 73 -29 36 -12 76 -29 90 -38 53 -35 127 -69 163 -76 20 -4 37 -11
37 -15 0 -10 -78 11 -127 34 -17 8 -38 15 -47 15 -8 0 -20 9 -26 20 -6 11 -20
20 -31 20 -11 0 -39 10 -62 22 -46 23 -89 26 -199 11 -38 -5 -68 -6 -68 -2 0
5 -6 6 -13 3 -14 -5 -157 64 -197 96 -35 27 -12 25 30 -3z m586 8 c-26 -19
-42 -19 -26 0 7 8 20 15 29 15 13 -1 13 -3 -3 -15z m-816 -5 c-8 -5 -22 -9
-30 -9 -10 0 -8 3 5 9 27 12 43 12 25 0z m-187 -7 c-7 -2 -19 -2 -25 0 -7 3
-2 5 12 5 14 0 19 -2 13 -5z m-1029 -18 c-4 -8 -10 -15 -15 -15 -4 0 -6 7 -3
15 4 8 10 15 15 15 4 0 6 -7 3 -15z m1596 -16 c0 -6 -4 -7 -10 -4 -5 3 -10 11
-10 16 0 6 5 7 10 4 6 -3 10 -11 10 -16z m1944 -74 c5 -22 4 -26 -4 -15 -5 8
-10 24 -10 34 0 26 6 18 14 -19z m292 3 c-18 -26 -22 -17 -5 14 6 11 13 17 16
15 3 -3 -2 -16 -11 -29z m-569 -35 c-3 -10 -5 -4 -5 12 0 17 2 24 5 18 2 -7 2
-21 0 -30z m-2653 -17 c-10 -8 -16 -18 -11 -22 4 -4 13 -2 19 4 7 7 21 12 32
12 12 0 3 -8 -25 -23 -63 -32 -93 -51 -100 -61 -4 -4 -10 -3 -14 4 -4 7 -19 9
-38 5 -31 -7 -31 -6 -12 9 20 15 19 15 -6 16 -15 0 -30 7 -33 16 -5 13 -3 14
7 6 7 -6 33 -14 57 -17 27 -3 38 -2 27 3 -17 7 -17 9 -3 21 8 7 24 10 35 6 12
-4 29 3 48 19 15 13 30 22 32 20 3 -2 -4 -11 -15 -18z m1336 14 c0 -5 -2 -10
-4 -10 -3 0 -8 5 -11 10 -3 6 -1 10 4 10 6 0 11 -4 11 -10z m-1197 -7 c-7 -2
-19 -2 -25 0 -7 3 -2 5 12 5 14 0 19 -2 13 -5z m-46 -9 c-3 -3 -12 -4 -19 -1
-8 3 -5 6 6 6 11 1 17 -2 13 -5z m2560 -26 c-3 -8 -6 -5 -6 6 -1 11 2 17 5 13
3 -3 4 -12 1 -19z m362 -9 c28 -14 31 -18 15 -19 -25 0 -84 28 -84 40 0 10 16
5 69 -21z m-1695 -23 c-3 -9 -10 -16 -15 -16 -5 0 -4 9 3 20 14 22 21 20 12
-4z m1343 -8 c-3 -8 -6 -5 -6 6 -1 11 2 17 5 13 3 -3 4 -12 1 -19z m-786 -35
c13 -16 12 -17 -3 -4 -17 13 -22 21 -14 21 2 0 10 -8 17 -17z m823 -27 c26
-44 83 -106 127 -138 19 -13 20 -17 7 -18 -29 0 -168 155 -168 189 0 19 7 12
34 -33z m-1874 24 c0 -5 -7 -10 -15 -10 -8 0 -15 5 -15 10 0 6 7 10 15 10 8 0
15 -4 15 -10z m808 -9 c3 -8 -1 -12 -9 -9 -7 2 -15 10 -17 17 -3 8 1 12 9 9 7
-2 15 -10 17 -17z m122 -11 c11 -11 20 -28 20 -37 0 -10 9 -29 20 -43 11 -14
20 -30 20 -37 0 -6 7 -18 15 -27 9 -8 23 -32 31 -53 17 -41 12 -38 -28 17 -25
34 -78 143 -78 159 0 5 -10 16 -22 24 -13 9 -17 16 -10 16 6 1 21 -8 32 -19z
m156 -15 c10 -26 -1 -35 -13 -10 -6 14 -7 25 -2 25 5 0 12 -7 15 -15z m639
-34 c6 -2 -3 -7 -20 -12 -31 -9 -65 -4 -65 10 0 7 57 8 85 2z m-2574 -34 l-23
-22 17 28 c10 15 20 25 23 22 3 -3 -5 -16 -17 -28z m1509 -7 c0 -5 -5 -10 -11
-10 -5 0 -7 5 -4 10 3 6 8 10 11 10 2 0 4 -4 4 -10z m840 -51 c0 -11 -37 -12
-43 -1 -3 4 6 8 19 8 13 1 24 -2 24 -7z m720 2 c0 -5 -11 -11 -25 -13 -17 -4
-25 -1 -25 8 0 8 11 14 25 14 14 0 25 -4 25 -9z m140 -26 c-7 -8 -18 -15 -26
-15 -7 0 -20 -7 -28 -16 -15 -14 -16 -14 -16 4 0 19 34 39 69 41 11 1 11 -2 1
-14z m-970 -11 c0 -8 -4 -12 -10 -9 -5 3 -10 10 -10 16 0 5 5 9 10 9 6 0 10
-7 10 -16z m270 12 c0 -3 -4 -8 -10 -11 -5 -3 -10 -1 -10 4 0 6 5 11 10 11 6
0 10 -2 10 -4z m487 -2 c-3 -3 -12 -4 -19 -1 -8 3 -5 6 6 6 11 1 17 -2 13 -5z
m-642 -24 c-3 -5 -10 -10 -16 -10 -5 0 -9 5 -9 10 0 6 7 10 16 10 8 0 12 -4 9
-10z m-190 -20 c3 -5 1 -10 -4 -10 -6 0 -11 5 -11 10 0 6 2 10 4 10 3 0 8 -4
11 -10z m-1280 -128 c4 -34 11 -65 16 -68 5 -3 16 -30 25 -60 16 -57 31 -65
49 -26 5 12 19 25 30 29 20 6 105 11 105 5 0 -12 -41 -43 -49 -37 -6 3 -32 -9
-59 -27 -26 -18 -49 -34 -51 -35 -3 -2 3 -19 12 -38 18 -38 10 -48 -11 -15
-12 20 -13 20 -42 -10 -17 -17 -30 -35 -30 -40 0 -6 -13 -24 -30 -42 l-30 -31
-20 47 c-12 25 -25 46 -29 46 -5 0 -14 14 -20 31 -6 17 -14 28 -19 25 -4 -2
-14 -1 -22 4 -8 5 -24 3 -39 -4 -14 -7 -54 -13 -88 -13 -53 0 -63 2 -63 17 0
12 7 16 28 12 19 -2 33 3 46 17 11 12 28 21 39 21 21 0 21 0 1 15 -23 17 -9
19 36 4 25 -9 34 -9 40 2 7 10 12 6 21 -14 14 -30 20 -32 37 -15 6 6 34 12 61
12 59 1 88 22 73 52 -19 37 -31 90 -37 159 -8 87 10 68 20 -23z m1046 57 c6
-12 15 -35 20 -51 7 -25 6 -28 -6 -18 -8 7 -15 21 -15 32 0 11 -5 28 -10 39
-6 10 -8 19 -6 19 3 0 10 -10 17 -21z m366 -11 c-3 -8 -6 -5 -6 6 -1 11 2 17
5 13 3 -3 4 -12 1 -19z m-1800 -40 c-3 -8 -6 -5 -6 6 -1 11 2 17 5 13 3 -3 4
-12 1 -19z m1793 -13 c0 -31 -11 -32 -28 -4 -8 12 -9 18 -3 15 5 -4 12 -2 16
4 10 16 15 12 15 -15z m-1610 -35 c0 -13 -11 -13 -30 0 -12 8 -11 10 8 10 12
0 22 -4 22 -10z m97 -36 c25 -14 43 -28 40 -30 -7 -7 -97 36 -97 46 0 15 9 12
57 -16z m1590 4 c-3 -8 -6 -5 -6 6 -1 11 2 17 5 13 3 -3 4 -12 1 -19z m-27
-47 c-5 -11 -15 -23 -20 -26 -6 -3 -10 -12 -10 -20 0 -18 -74 -92 -129 -128
-28 -19 -43 -37 -48 -57 -3 -17 -11 -30 -17 -30 -19 0 -63 52 -70 83 -5 20
-12 27 -31 27 -19 0 -30 10 -45 41 -12 23 -19 43 -17 45 2 3 10 -9 17 -26 9
-22 23 -33 51 -42 22 -6 39 -15 39 -20 0 -16 50 -8 70 12 16 16 20 17 20 5 0
-8 4 -15 10 -15 16 0 144 115 159 143 8 15 18 27 23 27 5 0 4 -9 -2 -19z
m-1789 -18 c13 -16 12 -17 -3 -4 -10 7 -18 15 -18 17 0 8 8 3 21 -13z m326
-19 c-3 -3 -12 -4 -19 -1 -8 3 -5 6 6 6 11 1 17 -2 13 -5z m1270 -26 c-3 -8
-6 -5 -6 6 -1 11 2 17 5 13 3 -3 4 -12 1 -19z m-887 -18 c0 -11 -2 -20 -4 -20
-2 0 -6 9 -9 20 -3 11 -1 20 4 20 5 0 9 -9 9 -20z m30 -55 c0 -8 -2 -15 -4
-15 -2 0 -6 7 -10 15 -3 8 -1 15 4 15 6 0 10 -7 10 -15z m108 -129 c17 -22 32
-44 32 -50 0 -6 -13 4 -28 22 -15 18 -44 51 -64 73 -21 23 -38 46 -38 53 1 11
35 -24 98 -98z m139 4 c-7 -17 -13 -26 -15 -21 -3 10 15 51 22 51 3 0 -1 -14
-7 -30z m733 22 c0 -13 -12 -22 -22 -16 -10 6 -1 24 13 24 5 0 9 -4 9 -8z
m-1885 -40 c-3 -3 -11 0 -18 7 -9 10 -8 11 6 5 10 -3 15 -9 12 -12z m499 -41
c-6 -6 -24 19 -24 34 1 6 7 1 15 -9 8 -11 12 -22 9 -25z m1842 18 c19 -21 18
-21 -5 -40 -13 -10 -36 -19 -51 -19 -15 0 -38 -8 -51 -19 -14 -11 -31 -16 -42
-12 -15 5 -12 9 15 25 18 11 48 34 66 53 39 39 43 40 68 12z m-726 1 c0 -5 -4
-10 -10 -10 -5 0 -10 5 -10 10 0 6 5 10 10 10 6 0 10 -4 10 -10z m-484 -37
c-11 -11 -19 6 -11 24 8 17 8 17 12 0 3 -10 2 -21 -1 -24z m-626 -12 c0 -14
-5 -18 -20 -14 -11 3 -20 12 -20 19 0 8 9 14 20 14 13 0 20 -7 20 -19z m200
-15 c0 -3 -4 -8 -10 -11 -5 -3 -10 -1 -10 4 0 6 5 11 10 11 6 0 10 -2 10 -4z
m1830 -12 c0 -8 -4 -12 -10 -9 -5 3 -10 10 -10 16 0 5 5 9 10 9 6 0 10 -7 10
-16z"/>
<path d="M1689 3108 c0 -2 -2 -18 -5 -35 -4 -32 -3 -32 24 -20 37 16 45 30 25
45 -15 10 -42 17 -44 10z"/>
<path d="M1871 3103 c-13 -3 -30 -11 -38 -18 -7 -8 -45 -24 -83 -36 -39 -12
-70 -25 -70 -30 0 -13 68 -22 117 -15 24 3 55 14 69 25 13 10 44 22 69 25 55
9 62 19 30 40 -24 16 -46 18 -94 9z"/>
<path d="M1397 3094 c-3 -4 1 -13 9 -21 18 -18 27 -13 18 11 -6 17 -16 20 -27
10z"/>
<path d="M1520 3030 c0 -5 4 -10 9 -10 6 0 13 5 16 10 3 6 -1 10 -9 10 -9 0
-16 -4 -16 -10z"/>
<path d="M1544 2975 c-3 -8 -3 -19 1 -25 11 -18 25 -11 25 15 0 27 -17 34 -26
10z"/>
<path d="M2341 2673 c-14 -11 -14 -14 -1 -23 12 -9 11 -10 -5 -6 -15 4 -39 -7
-80 -37 -56 -41 -184 -162 -186 -176 -1 -3 -2 -23 -3 -43 -2 -21 -10 -46 -19
-56 -23 -26 -18 -62 9 -62 31 0 149 47 147 58 -1 5 9 7 23 4 26 -5 54 12 54
34 0 8 -7 14 -15 14 -8 0 -15 7 -15 16 0 10 5 14 15 10 10 -3 18 1 22 11 4 9
1 19 -5 21 -19 6 -14 23 6 20 11 -2 18 4 20 19 2 13 16 30 32 40 36 21 52 59
49 115 -2 29 1 42 9 41 7 -2 12 1 12 7 0 13 -49 8 -69 -7z m-92 -250 c-7 -10
-15 -20 -16 -22 -2 -2 -3 5 -3 17 0 14 6 22 16 22 14 0 15 -3 3 -17z"/>
<path d="M2327 2480 c-8 -12 -12 -30 -9 -42 4 -16 7 -13 18 18 15 45 12 54 -9
24z"/>
<path d="M1980 2429 c0 -5 5 -7 10 -4 6 3 10 8 10 11 0 2 -4 4 -10 4 -5 0 -10
-5 -10 -11z"/>
<path d="M1903 2388 c-11 -13 -28 -35 -37 -49 l-17 -26 48 -23 c49 -23 66 -20
87 13 8 12 6 28 -4 59 -18 51 -45 60 -77 26z"/>
<path d="M2026 2395 c-3 -8 -1 -15 4 -15 13 0 22 18 11 24 -5 3 -11 -1 -15 -9z"/>
<path d="M1762 2078 c6 -18 22 -20 43 -3 19 14 18 14 -13 15 -22 0 -32 -4 -30
-12z"/>
<path d="M780 2180 c0 -5 5 -10 10 -10 6 0 10 5 10 10 0 6 -4 10 -10 10 -5 0
-10 -4 -10 -10z"/>
<path d="M2342 1224 c-7 -8 -8 -14 -3 -14 10 0 25 19 20 25 -2 1 -10 -3 -17
-11z"/>
<path d="M2390 1226 c0 -7 9 -16 21 -19 20 -5 20 -5 3 14 -20 23 -24 23 -24 5z"/>
<path d="M2511 1062 c-16 -30 -14 -42 9 -42 27 0 37 27 17 47 -14 14 -16 13
-26 -5z"/>
<path d="M2562 1039 c2 -7 10 -15 17 -17 8 -3 12 1 9 9 -2 7 -10 15 -17 17 -8
3 -12 -1 -9 -9z"/>
<path d="M1504 306 c-17 -9 -19 -16 -12 -35 8 -21 12 -23 56 -16 59 9 62 11
62 41 0 22 -4 24 -42 23 -24 -1 -52 -6 -64 -13z"/>
<path d="M3186 3292 c-4 -10 -2 -31 3 -45 5 -13 7 -34 5 -44 -5 -17 1 -21 32
-26 21 -4 40 -4 42 -2 3 3 -8 23 -24 46 -15 22 -29 48 -30 56 -4 27 -22 37
-28 15z"/>
<path d="M3387 3010 c-3 -10 1 -27 9 -37 12 -16 13 -14 14 20 0 39 -14 50 -23
17z"/>
<path d="M3430 2998 c0 -18 18 -34 28 -24 3 4 -2 14 -11 23 -16 16 -17 16 -17
1z"/>
<path d="M3935 1680 c4 -6 11 -8 16 -5 14 9 11 15 -7 15 -8 0 -12 -5 -9 -10z"/>
</g>
</svg>
